<svg height="40" width="200" xmlns="http://www.w3.org/2000/svg" viewBox="0 0 200 40" x="0px" y="0px" preserveAspectRatio="xMidYMid meet"><path d="M153.576 36.525V20.647c0-2.319-.82-2.431-1.629-2.342v-3.22a8.986 8.986 0 0 1 1.841-.247 3.725 3.725 0 0 1 3.7 2.489 5.907 5.907 0 0 1 5.119-2.489h.012c3.81.069 7.4 3.116 7.419 8.128a7.519 7.519 0 0 1-7.38 7.881c-2.539 0-3.96-.863-4.758-2.011v7.689zm8.132-17.758a3.835 3.835 0 0 0-3.929 4.068 3.893 3.893 0 0 0 3.91 4.122v-.011a4.06 4.06 0 0 0 4.087-4.137 4.073 4.073 0 0 0-3.993-4.042zm-111.052 1.4c0-5.377 3.983-10.848 11.553-10.848a11.739 11.739 0 0 1 7.607 2.7l-2.049 3.621a8.813 8.813 0 0 0-5.559-2.049 6.371 6.371 0 0 0-6.729 6.6c0 3.891 2.758 6.521 6.729 6.521a8.463 8.463 0 0 0 5.559-2.068l2.049 3.7a11.677 11.677 0 0 1-7.607 2.7c-7.581-.008-11.552-5.497-11.552-10.879zm84 3.791c0-4.218-.023-8.879-.023-8.879h4.353v8.509c0 1.941.79 3.359 2.92 3.359s3.14-1.468 3.14-3.529v-8.34h4.35v10.008h-.02l.012.012c0 1.941.6 2.4 1.687 2.242v3.278a6.463 6.463 0 0 1-1.96.188 3.662 3.662 0 0 1-3.76-2.569c-.79 1.522-2.4 2.593-4.95 2.593-3.89-.002-5.748-2.652-5.748-6.874zm-64.58-1.048c0-5.023 3.7-8.051 7.438-8.051 2.72 0 4.011.778 5.02 2.319 0-.27.023-2.092.023-2.092h4.406v10.012c0 1.941.6 2.4 1.691 2.242v3.278a6.475 6.475 0 0 1-1.961.188 3.691 3.691 0 0 1-3.778-2.55c-.979 1.8-2.781 2.573-5.212 2.573a7.664 7.664 0 0 1-7.624-7.921zm4.349-.093a4.019 4.019 0 0 0 4.11 4.072 3.992 3.992 0 0 0 4.222-4.029 3.976 3.976 0 0 0-4.141-4.083l-.012-.008a4.1 4.1 0 0 0-4.176 4.047zm96.911 0a7.778 7.778 0 0 1 8.051-7.978c5.058 0 8 3.089 8 8.667v.5h-11.818s-.043 3.109 4.11 3.109c3.069 0 4.117-1.537 4.117-1.537l2.531 2.377a8.942 8.942 0 0 1-6.729 2.862c-4.43-.001-8.259-2.99-8.259-8.001zm4.311-1.591h7.477s.042-2.877-3.641-2.877c-3.634.017-3.834 2.875-3.834 2.875zm-75.012 1.591a7.785 7.785 0 0 1 8.059-7.978c5.062 0 8 3.089 8 8.667l-.019.5h-11.8s-.02 3.109 4.109 3.109c3.07 0 4.118-1.537 4.118-1.537l2.531 2.377a8.942 8.942 0 0 1-6.729 2.862c-4.427-.001-8.267-2.99-8.267-8.001zm11.8-1.591s.019-2.877-3.641-2.877c-3.64.02-3.829 2.877-3.829 2.877zm-7.47 0h-.012zm12.543 3.352-.023-.1 4.16-.821.02.15a4.013 4.013 0 0 0 3.91 3.089c1.421.062 3.143-.328 3.143-2.319 0-.689-.6-1.768-2.65-2.481l-2.261-.771c-4.449-1.529-5.27-3.987-5.27-6.017 0-3.7 2.851-6.19 7.13-6.19a7.236 7.236 0 0 1 7.08 4.619l.039.1-3.74 1.841c-.69-1.672-1.818-2.692-3.391-2.692a2.326 2.326 0 0 0-2.588 2.191c0 .651.4 1.73 2.338 2.4l2.2.771h.012c2.508.79 5.582 2.3 5.64 6.04a5.831 5.831 0 0 1-2.419 4.888 8.759 8.759 0 0 1-5.182 1.529c-4.41-.001-7.75-2.57-8.146-6.229zm72.357 6.009v-9.908c0-2.323-.828-2.431-1.63-2.342v-3.221a8.883 8.883 0 0 1 1.842-.25 3.734 3.734 0 0 1 3.717 2.493c1.46-2.13 3.213-2.631 5.7-2.481v4.2c-2.361-.94-5.308.169-5.308 2.843h-.012v8.667zm-98.86 0v-9.908c0-2.323-.828-2.431-1.629-2.342v-3.221a8.882 8.882 0 0 1 1.841-.25 3.736 3.736 0 0 1 3.718 2.493c1.46-2.13 3.212-2.631 5.7-2.481v4.2c-2.361-.94-5.312.169-5.312 2.843h-.008v8.667z" fill="#000f69"/><path d="M34.117 1.696a1.1 1.1 0 0 1 2-.1l3.3 6.67-8.23 10.55.05.05 9.25-8.34 3.39 7.4a.58.58 0 0 1-.33.8l-12.33 4.73.03.1 11.56-2.12a.592.592 0 0 1 .64.84l-2.57 5.13-9.63-1.32-.03.1 8.58 3.29-2.44 4.66a.739.739 0 0 1-1.13.22l-9.65-8.11a2.5 2.5 0 0 0-2.39-.56l-18.42 4.52a1.462 1.462 0 0 1-1.76-.99l-1.24-3.99 15.59-.61v-.08l-16.31-1.64-1.66-5.46a.56.56 0 0 1 .72-.69l17.63 5.85.03-.07-16.88-7.92a.559.559 0 0 1-.04-.99l5.81-3.34 12.45 10.14.05-.07-10.48-11.2 6.27-3.42 6.19 11.5.08-.03-4.21-12.6 5.12-2.84a1.1 1.1 0 0 1 1.62.87l.92 12.19h.1l.92-8.91 3.63 1.28-1.56 8.16.1.03 5.26-13.69zm-1.98 31.18 3.57 3.76a.741.741 0 0 1 .11.86l-.72 1.32a1.036 1.036 0 0 1-1.92-.3l-1.07-5.61z" fill="#00de00"/></svg>
